<?xml version="1.0" encoding="UTF-8"?><svg width="42" height="1285" viewBox="0 0 42 1285" xmlns="http://www.w3.org/2000/svg" xmlns:xlink="http://www.w3.org/1999/xlink"><svg width="42" height="42" viewBox="0 0 42 42" id="01-avenue-back-to-top" xmlns="http://www.w3.org/2000/svg"><defs><path id="aaa" d="M15 9l11.481 11.078-11.48 11.065"/></defs><g fill="none" fill-rule="evenodd"><circle fill="#000" cx="21" cy="21" r="21"/><use stroke="#FFFEFE" stroke-linecap="round" fill-rule="nonzero" transform="matrix(0 -1 -1 0 40.812 40.812)" xlink:href="#aaa"/></g></svg><svg width="28" height="28" viewBox="0 0 28 28" id="02-avenue-bag" y="42" xmlns="http://www.w3.org/2000/svg"><defs><path id="aba" d="M6 0h12v10.5H6z"/></defs><g transform="translate(2 1)" fill="none" fill-rule="evenodd"><path d="M19.911 7.5H4.09a1.5 1.5 0 00-1.47 1.2L.492 19.097A4.5 4.5 0 004.901 24.5h14.198a4.5 4.5 0 004.409-5.402L21.38 8.7A1.5 1.5 0 0019.91 7.5zM4.09 8.5H19.91a.5.5 0 01.49.4l2.127 10.399a3.5 3.5 0 01-3.429 4.201H4.901a3.5 3.5 0 01-3.429-4.201l2.127-10.4a.5.5 0 01.49-.399z" fill="#000"/><mask id="abb" fill="#fff"><use xlink:href="#aba"/></mask><path d="M12 1.5A5.5 5.5 0 006.5 7v14.5h11V7A5.5 5.5 0 0012 1.5zm.212 1.005A4.5 4.5 0 0116.5 7v13.5h-9V7A4.5 4.5 0 0112 2.5l.212.005z" fill="#000" mask="url(#abb)"/></g></svg><svg width="28" height="28" viewBox="0 0 28 28" id="03-avenue-bag-hover" y="70" xmlns="http://www.w3.org/2000/svg"><defs><path id="aca" d="M0 0h12v10H0z"/></defs><g fill="none" fill-rule="evenodd"><path d="M6.089 9H21.91a1 1 0 01.98.8l2.127 10.398A4 4 0 0121.099 25H6.901a4 4 0 01-3.919-4.802L5.11 9.8a1 1 0 01.98-.8z" stroke="#686868" fill="#686868"/><g transform="translate(8 1)"><mask id="acb" fill="#fff"><use xlink:href="#aca"/></mask><path d="M6 1.5A5.5 5.5 0 00.5 7v14.5h11V7A5.5 5.5 0 006 1.5zm.212 1.005A4.5 4.5 0 0110.5 7v13.5h-9V7A4.5 4.5 0 016 2.5l.212.005z" fill="#686868" mask="url(#acb)"/></g></g></svg><svg width="8" height="8" viewBox="0 0 8 8" id="04-avenue-caret" y="98" xmlns="http://www.w3.org/2000/svg"><path d="M7.714 1.714H.286l3.71 5.143z" fill="#000" fill-rule="evenodd"/></svg><svg width="20" height="20" viewBox="0 0 20 20" id="05-avenue-chevron" y="106" xmlns="http://www.w3.org/2000/svg"><path d="M18.377 6.724l-8.081 8.082-.036-.037-.036.037-8.081-8.082 1.01-1.01 7.107 7.107 7.107-7.107 1.01 1.01z" fill="#000" fill-rule="evenodd"/></svg><svg width="16" height="16" viewBox="0 0 16 16" id="06-avenue-chevron-left" y="126" xmlns="http://www.w3.org/2000/svg"><path d="M10.828 1.506L4.363 7.971l.03.028-.03.03 6.465 6.465.809-.808L5.952 8l5.685-5.686-.809-.808z" fill="#000" fill-rule="evenodd"/></svg><svg width="16" height="16" viewBox="0 0 16 16" id="07-avenue-chevron-left-small" y="142" xmlns="http://www.w3.org/2000/svg"><path d="M10.828 1.506L4.363 7.971l.03.028-.03.03 6.465 6.465.809-.808L5.952 8l5.685-5.686-.809-.808z" fill="#000" fill-rule="evenodd"/></svg><svg width="16" height="16" viewBox="0 0 16 16" id="08-avenue-chevron-right" y="158" xmlns="http://www.w3.org/2000/svg"><path d="M5.172 1.506l6.465 6.465-.03.028.03.03-6.465 6.465-.809-.808L10.048 8 4.363 2.314l.809-.808z" fill="#000" fill-rule="evenodd"/></svg><svg width="24" height="24" viewBox="0 0 24 24" id="09-avenue-circle-check" y="174" xmlns="http://www.w3.org/2000/svg"><g fill="#000" fill-rule="nonzero"><path d="M12 .857C5.87.857.857 5.87.857 12 .857 18.13 5.87 23.143 12 23.143c6.13 0 11.143-5.013 11.143-11.143C23.143 5.87 18.13.857 12 .857zm0 .826c5.674 0 10.317 4.643 10.317 10.317S17.674 22.317 12 22.317 1.683 17.674 1.683 12 6.326 1.683 12 1.683z"/><path d="M17.733 6.918l.84.613-7.685 10.526-4.044-4.328.76-.71 3.185 3.408z"/></g></svg><svg width="16" height="16" viewBox="0 0 16 16" id="10-avenue-close" y="198" xmlns="http://www.w3.org/2000/svg"><g fill="#000" fill-rule="evenodd"><path d="M11.637 3.555l.808.808-8.082 8.082-.808-.808z"/><path d="M12.445 11.637l-.808.808-8.082-8.082.808-.808z"/></g></svg><svg width="28" height="28" viewBox="0 0 28 28" id="11-avenue-gift" y="214" xmlns="http://www.w3.org/2000/svg"><path d="M3.105 25.956V14.687H1v-8.05h5.58c-.054 0-.054-.053-.106-.107-.58-.697-.526-2.254.42-3.059.79-.75 2.998-1.134 7.1 3.1 4.104-4.234 6.312-3.85 7.101-3.1.947.805 1 2.362.421 3.06-.052.053-.052.107-.105.107h5.579v8.05h-2.105v11.268H3.105zM13.39 14.687H4.158v10.196h9.231V14.687zm10.443 0h-9.231v10.196h9.231V14.687zM13.389 7.711H1.972v5.903h11.417V7.71zm12.63 0H14.6v5.903h11.417V7.71zM8.262 4.008c-.315 0-.579.107-.736.268-.527.43-.474 1.288-.264 1.61.383.488.853.666 1.212.734l.104.018h4.046c-2-1.932-3.467-2.63-4.362-2.63zm11.464 0c-.895 0-2.362.698-4.362 2.63h4.046l.104-.018c.36-.068.829-.246 1.212-.734.21-.322.263-1.18-.264-1.61-.157-.16-.42-.268-.736-.268z" fill="#000" fill-rule="evenodd"/></svg><svg width="20" height="20" viewBox="0 0 20 20" id="12-avenue-info" y="242" xmlns="http://www.w3.org/2000/svg"><g fill="#000" fill-rule="evenodd"><path d="M11.071 8.571v7.143H8.93V8.571h2.142zM10 5a1.25 1.25 0 110 2.5A1.25 1.25 0 0110 5z"/><path d="M10 .714C4.892.714.714 4.892.714 10S4.892 19.286 10 19.286s9.286-4.178 9.286-9.286S15.108.714 10 .714zm0 .688c4.728 0 8.598 3.87 8.598 8.598 0 4.728-3.87 8.598-8.598 8.598-4.728 0-8.598-3.87-8.598-8.598 0-4.728 3.87-8.598 8.598-8.598z"/></g></svg><svg width="28" height="28" viewBox="0 0 28 28" id="13-avenue-large-close" y="262" xmlns="http://www.w3.org/2000/svg"><g fill="#000" fill-rule="evenodd"><path d="M1.253 1.253a.5.5 0 01.638-.058l.07.058 25 25a.5.5 0 01-.639.765l-.069-.058-25-25a.5.5 0 010-.707z"/><path d="M26.96 1.253a.5.5 0 00-.638-.058l-.069.058-25 25a.5.5 0 00.638.765l.07-.058 25-25a.5.5 0 000-.707z"/></g></svg><svg width="16" height="16" viewBox="0 0 16 16" id="14-avenue-minus" y="290" xmlns="http://www.w3.org/2000/svg"><path d="M13.714 7.429V8.57H2.286V7.43z" fill="#000" fill-rule="evenodd"/></svg><svg width="17" height="17" viewBox="0 0 17 17" id="15-avenue-minus-lg" y="306" xmlns="http://www.w3.org/2000/svg"><path d="M16.393 8.196c.168 0 .303.224.303.5 0 .246-.107.45-.249.492l-.054.008H.607c-.168 0-.303-.223-.303-.5 0-.245.107-.45.249-.492l.054-.008h15.786z" fill="#000" fill-rule="evenodd"/></svg><svg width="28" height="28" viewBox="0 0 28 28" id="16-avenue-pause" y="323" xmlns="http://www.w3.org/2000/svg"><g fill="none" fill-rule="evenodd"><path d="M14 1C6.848 1 1 6.848 1 14s5.848 13 13 13 13-5.848 13-13S21.152 1 14 1zm0 .963c6.62 0 12.037 5.417 12.037 12.037 0 6.62-5.417 12.037-12.037 12.037C7.38 26.037 1.963 20.62 1.963 14 1.963 7.38 7.38 1.963 14 1.963z" fill="#000" fill-rule="nonzero"/><path stroke="#000" stroke-linecap="round" d="M11 9v10M17 9v10"/></g></svg><svg width="28" height="28" viewBox="0 0 28 28" id="17-avenue-play" y="351" xmlns="http://www.w3.org/2000/svg"><g fill="#000" fill-rule="evenodd"><path d="M11 10v8a1 1 0 001.6.8l5.333-4a1 1 0 000-1.6l-5.333-4a1 1 0 00-1.6.8z"/><path d="M14 1C6.848 1 1 6.848 1 14s5.848 13 13 13 13-5.848 13-13S21.152 1 14 1zm0 .963c6.62 0 12.037 5.417 12.037 12.037 0 6.62-5.417 12.037-12.037 12.037C7.38 26.037 1.963 20.62 1.963 14 1.963 7.38 7.38 1.963 14 1.963z" fill-rule="nonzero"/></g></svg><svg width="17" height="17" viewBox="0 0 17 17" id="18-avenue-plus" y="379" xmlns="http://www.w3.org/2000/svg"><g fill="#000" fill-rule="nonzero"><path d="M8.5.25a.75.75 0 01.743.648L9.25 1v15a.75.75 0 01-1.493.102L7.75 16V1A.75.75 0 018.5.25z"/><path d="M16 7.75a.75.75 0 01.102 1.493L16 9.25H1a.75.75 0 01-.102-1.493L1 7.75h15z"/></g></svg><svg width="22" height="22" viewBox="0 0 22 22" id="19-avenue-star" y="396" xmlns="http://www.w3.org/2000/svg"><path d="M20 8.75h-6.856L11 2 8.856 8.75H2l5.645 4.663L5.54 20 11 16.203 16.46 20l-2.105-6.587z" fill="#000" fill-rule="evenodd"/></svg><svg width="28" height="28" viewBox="0 0 28 28" id="20-avenue-stop" y="418" xmlns="http://www.w3.org/2000/svg"><g fill="#000" fill-rule="evenodd"><path d="M11 10h6a1 1 0 011 1v6a1 1 0 01-1 1h-6a1 1 0 01-1-1v-6a1 1 0 011-1z"/><path d="M14 1C6.848 1 1 6.848 1 14s5.848 13 13 13 13-5.848 13-13S21.152 1 14 1zm0 .963c6.62 0 12.037 5.417 12.037 12.037 0 6.62-5.417 12.037-12.037 12.037C7.38 26.037 1.963 20.62 1.963 14 1.963 7.38 7.38 1.963 14 1.963z"/></g></svg><svg width="28" height="28" viewBox="0 0 28 28" id="21-avenue-thick-success" y="446" xmlns="http://www.w3.org/2000/svg"><path d="M24.192 3.41l1.616 1.18-14.77 20.226L3.27 16.5l1.462-1.365 6.118 6.55z" fill="#2E8540" fill-rule="evenodd"/></svg><svg width="21" height="21" viewBox="0 0 21 21" id="22-avenue-thin-search" y="474" xmlns="http://www.w3.org/2000/svg"><g fill="#000" fill-rule="evenodd"><path d="M8.077 0a8.077 8.077 0 110 16.154A8.077 8.077 0 018.077 0zm0 1a7.077 7.077 0 100 14.154A7.077 7.077 0 008.077 1z"/><path d="M14.022 13.355l-1.129 1.129 4.154 5.077a1.27 1.27 0 001.88.094l.294-.295.05-.056a1.272 1.272 0 00-.171-1.795l-5.078-4.154zm.895 2.023l3.55 2.905a.27.27 0 01.037.378l-.017.02-.268.268a.269.269 0 01-.331.037l-.058-.048-2.913-3.56z"/></g></svg><svg width="27" height="27" viewBox="0 0 27 27" id="23-avenue-warning" y="495" xmlns="http://www.w3.org/2000/svg"><g fill="#E13232" fill-rule="nonzero"><path d="M13.5 2.821C7.625 2.821 2.821 7.625 2.821 13.5S7.625 24.179 13.5 24.179 24.179 19.375 24.179 13.5 19.375 2.821 13.5 2.821zm0 .791c5.438 0 9.888 4.45 9.888 9.888s-4.45 9.888-9.888 9.888-9.888-4.45-9.888-9.888 4.45-9.888 9.888-9.888z"/><path d="M13.5 15.964a1.643 1.643 0 110 3.286 1.643 1.643 0 010-3.286zm.526-8.214a1 1 0 01.993 1.11l-.607 5.466a.918.918 0 01-1.824 0L11.98 8.86a1 1 0 01.993-1.11h1.052z"/></g></svg><svg width="28" height="28" viewBox="0 0 28 28" id="24-avenue-wishlist-heart" y="522" xmlns="http://www.w3.org/2000/svg"><path d="M19.6 2.5c-1.934 0-3.492.708-4.69 1.882l-.19.191c-.243.255-.45.508-.624.748l-.101.144-.099-.143a7.32 7.32 0 00-.812-.94C11.886 3.208 10.33 2.5 8.395 2.5 4.41 2.5 1.5 5.704 1.5 9.15c0 4.238 3.126 8.794 12.21 15.278l.29.208.29-.208C23.373 17.945 26.5 13.385 26.5 9.151c0-3.446-2.914-6.651-6.9-6.651zm0 1c3.412 0 5.9 2.737 5.9 5.65l-.002.187c-.091 3.683-2.894 7.787-10.951 13.672l-.547.396-.547-.396C5.258 17.023 2.5 12.884 2.5 9.151 2.5 6.236 4.984 3.5 8.395 3.5c1.657 0 2.97.596 3.99 1.596.358.351.653.728.889 1.104l.121.202c.07.122.116.216.141.273l.459 1.066.46-1.065.053-.113a6.065 6.065 0 011.1-1.467c1.022-1 2.335-1.596 3.992-1.596z" fill="#000" fill-rule="evenodd"/></svg><svg width="28" height="28" viewBox="0 0 28 28" id="25-avenue-wishlist-heart-hover" y="550" xmlns="http://www.w3.org/2000/svg"><path d="M19.6 3c-4.104 0-5.605 3.478-5.605 3.478S12.5 3 8.395 3C4.292 3 2 6.416 2 9.15c0 2.74 1.275 7.215 12 14.871 10.725-7.656 12-12.136 12-14.87C26 6.416 23.704 3 19.6 3z" fill="#686868" fill-rule="evenodd"/></svg><svg width="33" height="33" viewBox="0 0 33 33" id="26-avenue-AddressBook" y="578" xmlns="http://www.w3.org/2000/svg"><path d="M27.573 2.203c.81 0 1.418.607 1.418 1.417v25.318c0 .81-.608 1.418-1.418 1.418H6.813c-.81 0-1.418-.608-1.418-1.418v-3.14H3.572c-.303 0-.506-.202-.506-.506s.203-.506.506-.506h1.823V21.24H3.572c-.303 0-.506-.202-.506-.506s.203-.506.506-.506h1.823v-3.545H3.572c-.303 0-.506-.202-.506-.506s.203-.507.506-.507h1.823v-3.443H3.572c-.303 0-.506-.202-.506-.506s.203-.506.506-.506h1.823V7.67H3.572c-.303 0-.506-.202-.506-.506s.203-.507.506-.507h1.823V3.62c0-.81.608-1.417 1.418-1.417h20.76zm0 .911H6.813c-.304 0-.506.202-.506.506l-.001 3.038H8.13c.303 0 .506.203.506.507s-.304.506-.608.506H6.306v3.545H8.13c.303 0 .506.202.506.506-.101.202-.304.506-.608.506H6.306v3.443H8.13c.303 0 .506.203.506.507-.101.304-.304.506-.608.506H6.306v3.545H8.13c.303 0 .506.202.506.506-.101.304-.304.506-.608.506H6.306v3.545H8.13c.303 0 .506.202.506.506-.09.27-.26.46-.51.499l-.098.007H6.306v3.14c0 .304.203.506.507.506h20.76c.304 0 .507-.202.507-.506V3.62c0-.304-.203-.506-.507-.506zM17.66 16.5l.251.003c3.481.082 5.54 1.85 5.638 5.177l.003.252v2.976l-.01.095a.472.472 0 01-.925-.01l-.008-.085v-2.976l-.004-.272c-.09-2.856-1.834-4.148-4.951-4.217l.002-.001-.26.008c-2.95.117-4.575 1.436-4.662 4.21l-.004.272v2.976a.471.471 0 01-.934.095l-.01-.095v-2.976c0-3.49 2.05-5.345 5.617-5.429l.25-.003h.007zm.02-8.25a3.536 3.536 0 110 7.071 3.536 3.536 0 010-7.071zm0 .943a2.593 2.593 0 100 5.186 2.593 2.593 0 000-5.186z" fill="#000" fill-rule="nonzero"/></svg><svg width="30" height="30" viewBox="0 0 30 30" id="27-avenue-FasterCheckout" y="611" xmlns="http://www.w3.org/2000/svg"><path d="M18.75 3.16c2.692 0 4.875 2.198 4.875 4.907l-.018 1.04h2.012c.713 0 1.333.468 1.537 1.139l.038.146 1.88 11.142a4.821 4.821 0 01-4.4 5.777l-.324.01H13.072a4.821 4.821 0 01-4.777-5.468l.054-.32 1.957-11.14a1.607 1.607 0 011.424-1.279l.151-.007h1.993l.001-1.04c0-2.636 2.066-4.787 4.658-4.902zm6.869 6.804h-2.026l-.022 1.34h-.755v-1.34H14.65l-.022 1.34h-.754v-1.34H11.88a.75.75 0 00-.703.487l-.032.113L9.19 21.706a3.964 3.964 0 003.673 4.753l.21.005H24.35a3.964 3.964 0 003.92-4.551l-.036-.207-1.88-11.142a.75.75 0 00-.735-.6zm-6.267 5.252l3.265 3.179v.075l-3.276 3.266-.561-.485 2.413-2.488-6.185.092-.054-.74 6.333-.054-2.421-2.284.486-.561zM7.5 19.286v.857H3.214v-.857H7.5zm.536-2.679v.857H1.07v-.857h6.965zm.535-2.678v.857H3.75v-.857h4.821zM18.75 3.974c-2.176 0-3.965 1.725-4.062 3.905l-.022 1.228h8.15v-1.04c0-2.192-1.712-3.982-3.863-4.088z" fill="#000" fill-rule="nonzero"/></svg><svg width="30" height="30" viewBox="0 0 30 30" id="28-avenue-Heart" y="641" xmlns="http://www.w3.org/2000/svg"><path d="M21 2.679c-2.072 0-3.741.758-5.026 2.015l-.203.206c-.26.273-.482.544-.668.801l-.108.154-.106-.153a7.844 7.844 0 00-.87-1.007c-1.284-1.258-2.952-2.016-5.024-2.016-4.27 0-7.388 3.433-7.388 7.125 0 4.54 3.35 9.421 13.082 16.369l.311.222.311-.222c9.73-6.946 13.082-11.832 13.082-16.369 0-3.691-3.122-7.125-7.393-7.125zm0 1.071c3.655 0 6.321 2.933 6.321 6.054l-.002.2c-.098 3.946-3.1 8.343-11.733 14.649l-.586.424-.586-.424C5.634 18.238 2.679 13.803 2.679 9.804c0-3.122 2.662-6.054 6.316-6.054 1.775 0 3.181.639 4.274 1.71.384.376.7.78.953 1.183l.13.217c.074.13.124.23.15.292l.492 1.142.493-1.141.057-.12a6.498 6.498 0 011.179-1.572C17.818 4.388 19.225 3.75 21 3.75z" fill="#000" fill-rule="evenodd"/></svg><svg width="33" height="33" viewBox="0 0 33 33" id="29-avenue-Orders" y="671" xmlns="http://www.w3.org/2000/svg"><path d="M18.872 5.893c1.088 0 1.977.89 1.977 1.977v1.68h4.127c.5.004.865.04 1.31.396l.03.029.069.07 4.547 6.622c.099.1.494.791.494 2.076v2.966c0 1.087-.89 1.976-1.977 1.976h-.454a3.084 3.084 0 01-3.006 2.472 3.084 3.084 0 01-3.005-2.472H10.313a3.084 3.084 0 01-3.006 2.472 3.084 3.084 0 01-3.006-2.472h-.75a1.983 1.983 0 01-1.977-1.976V7.869c0-1.087.89-1.976 1.977-1.976h15.321zM7.307 20.918a2.194 2.194 0 00-2.175 2.174c0 1.187.989 2.175 2.175 2.175a2.194 2.194 0 002.175-2.175 2.194 2.194 0 00-2.175-2.174zm18.682 0a2.194 2.194 0 00-2.174 2.174c0 1.187.988 2.175 2.174 2.175a2.194 2.194 0 002.175-2.175 2.194 2.194 0 00-2.175-2.174zM18.971 6.684H3.551c-.593 0-1.087.494-1.087 1.087V21.61c0 .593.494 1.087 1.087 1.087h.718a3.083 3.083 0 013.038-2.669 3.081 3.081 0 013.058 2.866h12.567a3.081 3.081 0 013.057-2.866 3.081 3.081 0 013.058 2.866h.402c.593 0 1.087-.494 1.087-1.087v-3.163c0-1.02-.347-1.517-.39-1.576l-.005-.005-4.547-6.524c-.178-.178-.276-.196-.654-.198H20.85v10.577a.425.425 0 01-.395.395.425.425 0 01-.395-.395V7.77c0-.593-.495-1.087-1.088-1.087zm8.501 9.192c.198 0 .396.198.396.396a.425.425 0 01-.396.395h-5.041a.425.425 0 01-.396-.395c0-.198.198-.396.396-.396h5.041z" fill="#000" fill-rule="nonzero"/></svg><svg width="33" height="33" viewBox="0 0 33 33" id="30-avenue-Payments" y="704" xmlns="http://www.w3.org/2000/svg"><path d="M28.286 6.6a2.829 2.829 0 012.828 2.829V23.57a2.829 2.829 0 01-2.828 2.829H4.714a2.829 2.829 0 01-2.828-2.829V9.43A2.829 2.829 0 014.714 6.6zm0 .943H4.714A1.886 1.886 0 002.83 9.429l-.001.813H27.68c.29 0 .484.198.484.494 0 .297-.193.495-.387.495l-24.95-.001v2.274H27.68c.29 0 .484.198.484.494 0 .297-.193.495-.387.495l-24.95-.001.002 9.08c0 .991.765 1.804 1.738 1.88l.147.005h23.572a1.886 1.886 0 001.885-1.886V9.43a1.886 1.886 0 00-1.885-1.886zm-13.17 12.88c.297 0 .494.198.494.495 0 .296-.197.494-.494.494h-8.5c-.297 0-.495-.198-.495-.494 0-.297.198-.494.494-.494h8.501zm0-2.57c.297 0 .494.198.494.495 0 .296-.197.494-.494.494h-8.5c-.297 0-.495-.198-.495-.494 0-.297.198-.495.494-.495h8.501z" fill="#000" fill-rule="nonzero"/></svg><svg width="33" height="33" viewBox="0 0 33 33" id="31-avenue-Profile" y="737" xmlns="http://www.w3.org/2000/svg"><path d="M17.14 16.029c.038 0 .075.004.11.013 6.295.249 9.605 3.667 9.79 10.123v4.46l-.01.095a.472.472 0 01-.933-.095V26.18l-.013-.347c-.284-5.95-3.429-8.86-9.584-8.86h.64c-6.156 0-9.3 2.91-9.584 8.86l-.013.347v4.446a.471.471 0 01-.933.095l-.01-.095v-4.46c.185-6.456 3.495-9.874 9.789-10.122a.414.414 0 01.111-.014c.108 0 .214 0 .32.002l.32-.002zm-.345-13.672a6.188 6.188 0 110 12.375 6.188 6.188 0 010-12.375zm0 .943a5.245 5.245 0 100 10.49 5.245 5.245 0 000-10.49z" fill="#000" fill-rule="nonzero"/></svg><svg width="33" height="33" viewBox="0 0 33 33" id="32-avenue-SaksFirst" y="770" xmlns="http://www.w3.org/2000/svg"><path d="M24.75 8.25a8.25 8.25 0 110 16.5 8.25 8.25 0 010-16.5zm-9.429 0v16.5H0V8.25h15.321z" fill="#231F20" fill-rule="evenodd"/></svg><svg width="30" height="30" viewBox="0 0 30 30" id="33-avenue-TrackOrders" y="803" xmlns="http://www.w3.org/2000/svg"><path d="M17.157 5.357c.988 0 1.797.809 1.797 1.797v1.527l3.594.001c.54 0 .899 0 1.348.36l.09.09 4.134 6.02c.09.09.45.719.45 1.887v2.696c0 .989-.81 1.797-1.798 1.797l-.413.001a2.804 2.804 0 01-2.732 2.246 2.804 2.804 0 01-2.733-2.246H9.375a2.804 2.804 0 01-2.732 2.246 2.804 2.804 0 01-2.732-2.246h-.683a1.803 1.803 0 01-1.797-1.798V7.155c0-.99.809-1.798 1.797-1.798h13.929zM6.643 19.017a1.995 1.995 0 00-1.977 1.976c0 1.078.899 1.977 1.977 1.977a1.995 1.995 0 001.977-1.977 1.995 1.995 0 00-1.977-1.977zm16.984 0a1.995 1.995 0 00-1.977 1.976c0 1.078.898 1.977 1.977 1.977a1.995 1.995 0 001.977-1.977 1.995 1.995 0 00-1.977-1.977zm-6.38-12.941H3.228c-.54 0-.988.45-.988.989v12.58c0 .54.449.989.988.989h.653a2.803 2.803 0 012.762-2.427 2.801 2.801 0 012.78 2.606h11.424a2.801 2.801 0 012.78-2.606 2.801 2.801 0 012.78 2.606h.365c.54 0 .988-.449.988-.988v-2.876c0-.922-.313-1.375-.354-1.431l-.005-.006-4.134-5.931c-.18-.18-.27-.18-.719-.18h-3.594v9.615c0 .18-.18.36-.36.36s-.359-.18-.359-.36V7.065c0-.54-.45-.989-.988-.989zm7.728 8.357c.18 0 .36.18.36.36s-.18.36-.36.36h-4.583c-.18 0-.36-.18-.36-.36s.18-.36.36-.36h4.583z" fill="#000" fill-rule="nonzero"/></svg><svg width="28" height="28" viewBox="0 0 28 28" id="34-avenue-Thick_Success" y="833" xmlns="http://www.w3.org/2000/svg"><path d="M24.192 3.41l1.616 1.18-14.77 20.226L3.27 16.5l1.462-1.365 6.118 6.55z" fill="#2E8540" fill-rule="evenodd"/></svg><svg width="27" height="27" viewBox="0 0 27 27" id="35-avenue-warning" y="861" xmlns="http://www.w3.org/2000/svg"><g fill="#E13232" fill-rule="nonzero"><path d="M13.5 2.821C7.625 2.821 2.821 7.625 2.821 13.5S7.625 24.179 13.5 24.179 24.179 19.375 24.179 13.5 19.375 2.821 13.5 2.821zm0 .791c5.438 0 9.888 4.45 9.888 9.888s-4.45 9.888-9.888 9.888-9.888-4.45-9.888-9.888 4.45-9.888 9.888-9.888z"/><path d="M13.5 15.964a1.643 1.643 0 110 3.286 1.643 1.643 0 010-3.286zm.526-8.214a1 1 0 01.993 1.11l-.607 5.466a.918.918 0 01-1.824 0L11.98 8.86a1 1 0 01.993-1.11h1.052z"/></g></svg><svg width="27" height="26" viewBox="0 0 27 26" id="36-avenue-Up_Copy" y="888" xmlns="http://www.w3.org/2000/svg"><g fill="#000" fill-rule="evenodd"><path d="M.253.253A.5.5 0 01.891.195l.07.058 25 25a.5.5 0 01-.639.765l-.069-.058-25-25a.5.5 0 010-.707z"/><path d="M25.96.253a.5.5 0 00-.638-.058l-.069.058-25 25a.5.5 0 00.638.765l.07-.058 25-25a.5.5 0 000-.707z"/></g></svg><svg width="28" height="28" viewBox="0 0 28 28" id="37-avenue-Active" y="914" xmlns="http://www.w3.org/2000/svg"><path d="M5.624.67a.5.5 0 01.632-.1l.073.054 15.43 13.49L6.332 27.585a.5.5 0 01-.72-.688l.062-.065 14.567-12.72L5.67 1.376a.5.5 0 01-.1-.632L5.624.67z" fill="#000" fill-rule="evenodd"/></svg><svg width="20" height="20" viewBox="0 0 20 20" id="38-avenue-Active-Left" y="942" xmlns="http://www.w3.org/2000/svg"><path d="M15.455.48a.357.357 0 00-.452-.073l-.052.038-11.022 9.636 11.02 9.623a.357.357 0 00.515-.491l-.045-.047-10.405-9.085L15.421.983a.357.357 0 00.071-.452L15.455.48z" fill="#000" fill-rule="evenodd"/></svg><svg width="28" height="28" viewBox="0 0 28 28" id="39-avenue-Close" y="962" xmlns="http://www.w3.org/2000/svg"><path d="M1.89 1.195l.07.058L14.107 13.4 26.253 1.253l.07-.058a.5.5 0 01.637.765L14.814 14.107 26.96 26.253a.5.5 0 01-.638.765l-.069-.058-12.146-12.146L1.96 26.96l-.07.058a.5.5 0 01-.637-.765L13.4 14.107 1.253 1.96a.5.5 0 01.638-.765z" fill="#000" fill-rule="evenodd"/></svg><svg width="26" height="26" viewBox="0 0 26 26" id="40-avenue-Call" y="990" xmlns="http://www.w3.org/2000/svg"><path d="M6.162 2.192l4.235 4.183c.378.386.4.98.07 1.345L8.4 9.714c-.543.526-.3 1.2.665 2.505l.144.192.068.078.73.755 2.818 2.85.088.092.595.481c1.663 1.322 2.257 1.551 2.818 1.007l.422-.418 1.531-1.485c.385-.382 1.05-.37 1.433.02l4.087 4.11.084.095c.256.33.293.776.098 1.108l-.061.089-.123.136-.001.01-1.521 1.511-.421.364c-.746.785-2.576 1.119-4.56.725-2.984-.594-6.277-2.654-9.724-6.19-3.268-3.373-5.108-6.51-5.567-9.326-.294-1.803.022-3.427.73-4.314l.039-.04.426-.406 1.535-1.488c.384-.381 1.05-.37 1.429.017zm11.44 12.89l-1.53 1.484-.422.419c.006-.007.009-.01-.018-.026l-.192-.103c-.363-.19-.937-.612-1.871-1.376l-.05-.058-2.822-2.853-.724-.75c-.399-.525-.65-.908-.78-1.178l-.094-.219c-.01-.02-.017-.022-.027-.016l1.96-1.891c.833-.705.843-2.01.05-2.822L6.845 1.51C6.1.75 4.82.728 4.056 1.486L2.527 2.97l-.444.423L2 3.482C1.084 4.626.715 6.525 1.05 8.579c.495 3.035 2.432 6.34 5.828 9.842 3.573 3.667 7.028 5.829 10.229 6.465 2.276.452 4.436.059 5.414-.975l.41-.354 1.831-1.815v-.074l.07-.117c.412-.753.273-1.7-.346-2.33l-4.087-4.108c-.752-.767-2.032-.79-2.796-.031z" fill="#000" fill-rule="nonzero"/></svg><svg width="35" height="35" viewBox="0 0 35 35" id="41-avenue-Chat_Bubble_Unselected" y="1016" xmlns="http://www.w3.org/2000/svg"><g fill="#AAA" fill-rule="nonzero"><path d="M22.624 12.642c-1.132-.06-1.996.715-2.055 1.839-.058 1.107.728 1.986 1.828 2.043 1.132.06 1.997-.714 2.056-1.84.059-1.124-.71-1.983-1.83-2.042M16.64 12.642c-1.131-.06-1.995.715-2.054 1.839-.058 1.107.727 1.986 1.828 2.043 1.131.06 1.997-.714 2.056-1.84.059-1.124-.71-1.983-1.83-2.042M10.807 12.642c-1.131-.06-1.995.715-2.054 1.839-.058 1.107.727 1.986 1.828 2.043 1.131.06 1.996-.714 2.055-1.84.06-1.124-.71-1.983-1.829-2.042"/><path d="M22.961 3.889c-.138.31-.254.635-.345.973H8.44c-3.497 0-6.372 2.81-6.493 6.293l-.004.228v6.84l.004.227c.093 2.86 2.066 5.334 4.778 6.072l.24.06 1.095.223v5.744l5.77-5.796 10.783.005c3.498 0 6.372-2.81 6.493-6.292l.004-.228v-4.884c.338-.093.663-.209.973-.347v5.231c0 4.044-3.23 7.362-7.234 7.488l-.236.004-10.38-.004-7.145 7.18v-7.307l-.316-.064a7.51 7.51 0 01-5.784-6.8l-.013-.253-.004-.244v-6.855c0-4.043 3.23-7.362 7.233-7.489l.236-.003zm2.4.044l.214.026.245.035c3.401.554 5.974 3.402 6.24 6.805a4.62 4.62 0 01-.95.509l.001.075c0-3.1-2.209-5.784-5.2-6.385l-.231-.042-.227-.033a7.048 7.048 0 00-.687-.058l-.105-.002c.135-.34.305-.658.508-.948l.193.018z"/><path d="M29.142 11.667c-2.758 0-4.836-2.09-4.836-4.862 0-2.817 2.053-4.86 4.883-4.86 2.804 0 4.839 2.043 4.839 4.86s-2.055 4.862-4.886 4.862"/></g></svg><svg width="35" height="35" viewBox="0 0 35 35" id="42-avenue-Chat_Bubble" y="1051" xmlns="http://www.w3.org/2000/svg"><g fill="none" fill-rule="evenodd"><path d="M22.624 12.642c-1.132-.06-1.996.715-2.055 1.839-.058 1.107.728 1.986 1.828 2.043 1.132.06 1.997-.714 2.056-1.84.059-1.124-.71-1.983-1.83-2.042M16.64 12.642c-1.131-.06-1.995.715-2.054 1.839-.058 1.107.727 1.986 1.828 2.043 1.131.06 1.997-.714 2.056-1.84.059-1.124-.71-1.983-1.83-2.042M10.807 12.642c-1.131-.06-1.995.715-2.054 1.839-.058 1.107.727 1.986 1.828 2.043 1.131.06 1.996-.714 2.055-1.84.06-1.124-.71-1.983-1.829-2.042" fill="#000"/><path d="M22.961 3.889c-.138.31-.254.635-.345.973H8.44c-3.497 0-6.372 2.81-6.493 6.293l-.004.228v6.84l.004.227c.093 2.86 2.066 5.334 4.778 6.072l.24.06 1.095.223v5.744l5.77-5.796 10.783.005c3.498 0 6.372-2.81 6.493-6.292l.004-.228v-4.884c.338-.093.663-.209.973-.347v5.231c0 4.044-3.23 7.362-7.234 7.488l-.236.004-10.38-.004-7.145 7.18v-7.307l-.316-.064a7.51 7.51 0 01-5.784-6.8l-.013-.253-.004-.244v-6.855c0-4.043 3.23-7.362 7.233-7.489l.236-.003zm2.4.044l.214.026.245.035c3.401.554 5.974 3.402 6.24 6.805a4.62 4.62 0 01-.95.509l.001.075c0-3.1-2.209-5.784-5.2-6.385l-.231-.042-.227-.033a7.048 7.048 0 00-.687-.058l-.105-.002c.135-.34.305-.658.508-.948l.193.018z" fill="#000"/><path d="M29.142 11.667c-2.758 0-4.836-2.09-4.836-4.862 0-2.817 2.053-4.86 4.883-4.86 2.804 0 4.839 2.043 4.839 4.86s-2.055 4.862-4.886 4.862" fill="#2E8540"/></g></svg><svg width="28" height="29" viewBox="0 0 28 29" id="43-avenue-Connect_Arrow" y="1086" xmlns="http://www.w3.org/2000/svg"><path d="M21 8.106v6.166a.606.606 0 11-1.212 0V9.569L8.034 21.322a.604.604 0 01-.856 0 .606.606 0 010-.857L18.93 8.712h-4.703a.606.606 0 110-1.212h6.166c.04 0 .08.004.119.012.018.004.035.01.052.016.02.006.04.01.06.018.022.01.041.021.06.032l.045.024a.608.608 0 01.168.168c.01.015.016.03.024.045.011.02.023.039.032.06.008.02.012.04.018.06.005.018.012.035.016.053a.587.587 0 01.012.118z" fill="#000" fill-rule="evenodd"/></svg><svg width="34" height="34" viewBox="0 0 34 34" id="44-avenue-Email" y="1115" xmlns="http://www.w3.org/2000/svg"><defs><rect id="bra" x="0" y=".556" width="28" height="19" rx="1"/></defs><g transform="translate(3 6)" fill="none" fill-rule="evenodd"><mask id="brb" fill="#fff"><use xlink:href="#bra"/></mask><use stroke="#000" xlink:href="#bra"/><path d="M23.726-.5H4.274C3.156-.5 2.14-.048 1.35.725l11.268 12.422a1.8 1.8 0 001.381.616 1.8 1.8 0 001.38-.616L26.65.725C25.86-.048 24.843-.5 23.725-.5z" stroke="#000" mask="url(#brb)"/></g></svg><svg width="28" height="28" viewBox="0 0 28 28" id="45-avenue-Question" y="1149" xmlns="http://www.w3.org/2000/svg"><path d="M14.431 21.847c1.624 0 2.859 1.177 2.859 2.78 0 1.703-1.178 2.937-2.859 2.937-1.534 0-2.858-1.325-2.858-2.859a2.865 2.865 0 012.858-2.858zm0 1c-1.03 0-1.858.847-1.858 1.858 0 .982.877 1.859 1.858 1.859 1.118 0 1.859-.777 1.859-1.937 0-1.04-.777-1.78-1.859-1.78zM5.521 7.679C6.153.902 15.685-1.744 20.868 2.555l.183.156.21.193c1.373 1.312 2.24 3.173 2.24 4.978 0 2.078-1.044 3.66-3.28 5.695l-1.604 1.415c-.946.848-1.31 1.337-1.405 2.01l-.003.296c-.003.169-.01.357-.02.627l-.036.808c-.013.34-.02.61-.02.862 0 .698-.332 1.077-.984 1.124l-.145.005h-3.458c-.549 0-.917-.328-.966-.83l-.006-.119c-.114-2.511.033-4.309.675-5.735.445-.965 1-1.542 2.202-2.453l.392-.293c.98-.727 1.438-1.137 1.858-1.74 1.214-1.67.582-3.195-1.177-3.771-1.835-.602-3.731.232-4.386 2.321-.3.998-.581 1.167-1.656 1.058l-.494-.07-1.844-.222a24.967 24.967 0 01-.75-.104c-.68-.137-1-.456-.871-1.087zm14.687-4.372C15.654-.443 7.295 1.817 6.537 7.584l-.022.189.467.068 1.1.134.9.108c.233.03.421.056.625.088l.188.023c.365.052.248.075.386-.383.832-2.655 3.313-3.746 5.654-2.979 2.307.757 3.263 2.94 1.8 5.128l-.12.173c-.456.655-.935 1.102-1.84 1.787l-.379.283c-1.25.928-1.757 1.425-2.138 2.252-.525 1.166-.677 2.728-.6 4.907l.013.362h3.432c.13 0 .145.03.14-.008l-.009-.065-.002-.056c0-.2.004-.41.012-.65l.061-1.527c.006-.168.008-.313.01-.483.131-.98.562-1.608 1.532-2.504l.679-.606c.272-.238.694-.607.855-.75C21.508 11.097 22.5 9.67 22.5 7.883c0-1.512-.74-3.108-1.911-4.237l-.2-.183-.181-.155z" fill="#000" fill-rule="evenodd"/></svg><svg width="28" height="28" viewBox="0 0 28 28" id="46-avenue-Hamburger" y="1177" xmlns="http://www.w3.org/2000/svg"><g fill="#000" fill-rule="evenodd"><path d="M1 6v1h26V6zM1 13v1h26v-1H1zM1 20v1h26v-1z"/></g></svg><svg width="19" height="19" viewBox="0 0 19 19" id="47-avenue-Alert" y="1205" xmlns="http://www.w3.org/2000/svg"><g fill="#E13232" fill-rule="nonzero"><path d="M9.5.679C4.647.679.679 4.647.679 9.5s3.968 8.821 8.821 8.821 8.821-3.968 8.821-8.821S14.353.679 9.5.679zm0 .653c4.492 0 8.168 3.676 8.168 8.168 0 4.492-3.676 8.168-8.168 8.168-4.492 0-8.168-3.676-8.168-8.168 0-4.492 3.676-8.168 8.168-8.168z"/><path d="M9.5 11.536a1.357 1.357 0 110 2.714 1.357 1.357 0 010-2.714zm.24-6.786a1 1 0 01.994 1.11l-.48 4.323a.758.758 0 01-1.508 0l-.48-4.323a1 1 0 01.994-1.11h.48z"/></g></svg><svg width="19" height="19" viewBox="0 0 19 19" id="48-avenue-Info" y="1224" xmlns="http://www.w3.org/2000/svg"><g fill="#686868" fill-rule="evenodd"><path d="M10.518 8.143v6.786H8.482V8.143h2.036zM9.5 4.75a1.188 1.188 0 110 2.375 1.188 1.188 0 010-2.375z"/><path d="M9.5.679C4.647.679.679 4.647.679 9.5s3.968 8.821 8.821 8.821 8.821-3.968 8.821-8.821S14.353.679 9.5.679zm0 .653c4.492 0 8.168 3.676 8.168 8.168 0 4.492-3.676 8.168-8.168 8.168-4.492 0-8.168-3.676-8.168-8.168 0-4.492 3.676-8.168 8.168-8.168z"/></g></svg><svg width="19" height="19" viewBox="0 0 19 19" id="49-avenue-Success" y="1243" xmlns="http://www.w3.org/2000/svg"><g fill="#2E8540" fill-rule="evenodd"><path d="M14.038 5.476l.666.486-6.085 8.333-3.2-3.426.601-.563 2.521 2.699z"/><path d="M9.5.679C4.647.679.679 4.647.679 9.5s3.968 8.821 8.821 8.821 8.821-3.968 8.821-8.821S14.353.679 9.5.679zm0 .653c4.492 0 8.168 3.676 8.168 8.168 0 4.492-3.676 8.168-8.168 8.168-4.492 0-8.168-3.676-8.168-8.168 0-4.492 3.676-8.168 8.168-8.168z"/></g></svg><svg width="23" height="23" viewBox="0 0 23 23" id="50-avenue-Warning" y="1262" xmlns="http://www.w3.org/2000/svg"><g fill="#FF8F00" fill-rule="nonzero"><path d="M11.5 2.679c-4.853 0-8.821 3.968-8.821 8.821s3.968 8.821 8.821 8.821 8.821-3.968 8.821-8.821-3.968-8.821-8.821-8.821zm0 .653c4.492 0 8.168 3.676 8.168 8.168 0 4.492-3.676 8.168-8.168 8.168-4.492 0-8.168-3.676-8.168-8.168 0-4.492 3.676-8.168 8.168-8.168z"/><path d="M11.5 13.536a1.357 1.357 0 110 2.714 1.357 1.357 0 010-2.714zm.24-6.786a1 1 0 01.994 1.11l-.48 4.323a.758.758 0 01-1.508 0l-.48-4.323a1 1 0 01.994-1.11h.48z"/></g></svg></svg>