<svg id="Group_1049" data-name="Group 1049" xmlns="http://www.w3.org/2000/svg" width="19.21" height="19.383" viewBox="0 0 19.21 19.383">
  <path id="Path_1212" data-name="Path 1212" d="M865.971,156.839a2.947,2.947,0,0,0-.223.279,3.544,3.544,0,0,0-.833,3.286A15.041,15.041,0,0,0,878.284,172.5c.143.013.284.019.425.019a3.936,3.936,0,0,0,2.049-.537,3.028,3.028,0,0,0,.73-.59l.569-.63a3,3,0,0,0-.213-4.233l-.959-.868a3,3,0,0,0-4.233.212l-.568.629a2.97,2.97,0,0,0-.529.823,10.606,10.606,0,0,1-5.273-4.827,2.987,2.987,0,0,0,1.1-.767l.568-.627a3,3,0,0,0-.212-4.234l-.959-.867a3,3,0,0,0-4.234.212Zm1.14-.112a2.227,2.227,0,0,1,3.146-.157l.959.866a2.228,2.228,0,0,1,.158,3.146l-.568.627h0a2.225,2.225,0,0,1-1.008.639l-.172.051a.385.385,0,0,0-.234.54l.08.162a11.383,11.383,0,0,0,6.02,5.524l.149.06a.386.386,0,0,0,.506-.237l.051-.151a2.206,2.206,0,0,1,.46-.783l.568-.629a2.227,2.227,0,0,1,3.146-.157l.959.867a2.23,2.23,0,0,1,.158,3.145l-.569.629a2.233,2.233,0,0,1-.553.444,3.294,3.294,0,0,1-2.01.413,14.267,14.267,0,0,1-12.681-11.47,2.819,2.819,0,0,1,.6-2.575.465.465,0,0,0,.035-.034l.026-.03a.335.335,0,0,0,.032-.04,2.194,2.194,0,0,1,.178-.225Z" transform="translate(-864.83 -153.131)" fill="#707070"/>
  <path id="Path_1213" data-name="Path 1213" d="M890.454,160.833a9.162,9.162,0,0,0-9.151-9.152.8.8,0,1,0,0,1.6,7.558,7.558,0,0,1,7.548,7.548.8.8,0,1,0,1.6,0Zm-.8.416a.417.417,0,0,1-.416-.416A7.943,7.943,0,0,0,881.3,152.9a.416.416,0,1,1,0-.832,8.775,8.775,0,0,1,8.765,8.766A.417.417,0,0,1,889.652,161.249Z" transform="translate(-871.244 -151.681)" fill="#707070"/>
  <path id="Path_1214" data-name="Path 1214" d="M881.136,156.726a.8.8,0,0,0,0,1.6A4.672,4.672,0,0,1,885.8,163a.8.8,0,0,0,1.6,0A6.277,6.277,0,0,0,881.136,156.726Zm5.468,6.686a.417.417,0,0,1-.416-.416,5.058,5.058,0,0,0-5.052-5.051.416.416,0,0,1,0-.833A5.892,5.892,0,0,1,887.021,163,.417.417,0,0,1,886.6,163.412Z" transform="translate(-871.176 -153.746)" fill="#707070"/>
</svg>
