<svg id="Group_1048" data-name="Group 1048" xmlns="http://www.w3.org/2000/svg" width="19.738" height="19.771" viewBox="0 0 19.738 19.771">
  <path id="Path_410" data-name="Path 410" d="M133.483,84.6a5.722,5.722,0,0,0-5.881-5.712,5.779,5.779,0,0,0-5.549,5.639,5.713,5.713,0,0,0,2.48,4.783,9.9,9.9,0,0,0-6.616,8.5.779.779,0,0,0,.772.849h0a.764.764,0,0,0,.765-.695,8.352,8.352,0,0,1,8.312-7.646,5.722,5.722,0,0,0,5.715-5.715Zm-5.715,4.17a4.17,4.17,0,1,1,4.17-4.17,4.175,4.175,0,0,1-4.17,4.17Zm3.321,5.251h5.792a.772.772,0,0,1,.772.772h0a.772.772,0,0,1-.772.772h-5.792a.772.772,0,0,1-.772-.772h0A.772.772,0,0,1,131.089,94.025Zm6.564-2.316h0a.772.772,0,0,1-.772.772h-5.792a.772.772,0,0,1-.772-.772h0a.773.773,0,0,1,.772-.772h5.792A.773.773,0,0,1,137.653,91.709Zm-6.564,5.406h5.792a.773.773,0,0,1,.772.772h0a.773.773,0,0,1-.772.772h-5.792a.773.773,0,0,1-.772-.772h0A.773.773,0,0,1,131.089,97.115Zm-.772,0" transform="translate(-117.916 -78.889)" fill="#707070"/>
</svg>
