<svg id="Group_1033" data-name="Group 1033" xmlns="http://www.w3.org/2000/svg" width="20.539" height="20.539" viewBox="0 0 20.539 20.539">
  <path id="Path_416" data-name="Path 416" d="M126.969,377.953a10.27,10.27,0,0,0,0,20.539,10.27,10.27,0,1,0,0-20.539Zm0,19.344a9.074,9.074,0,1,1,9.114-9.114,9.091,9.091,0,0,1-9.114,9.114Zm0,0" transform="translate(-116.739 -377.953)" fill="#707070"/>
  <path id="Path_417" data-name="Path 417" d="M129.036,383.631a6.659,6.659,0,0,0,0,13.318,6.863,6.863,0,0,0,4.105-1.364.6.6,0,0,0-.733-.955,5.641,5.641,0,0,1-3.373,1.124,5.464,5.464,0,1,1,5.5-5.5v.6a1.2,1.2,0,1,1-2.407,0v-3.008a.6.6,0,1,0-1.2,0v.038a3.1,3.1,0,0,0-1.885-.64,3.009,3.009,0,0,0,0,6.018,3.115,3.115,0,0,0,2.316-1.036,2.406,2.406,0,0,0,4.384-1.372v-.6a6.683,6.683,0,0,0-6.7-6.619Zm0,8.433a1.813,1.813,0,0,1,0-3.626,1.815,1.815,0,1,1,0,3.626Zm0,0" transform="translate(-118.807 -380.021)" fill="#707070"/>
</svg>
