<svg xmlns="http://www.w3.org/2000/svg" width="16.335" height="15.185" viewBox="0 0 16.335 15.185">
  <g id="Holiday" transform="translate(0 0)">
    <path id="Path_1369" data-name="Path 1369" d="M366.494,942.156h-3.722v-2.282a.607.607,0,0,0-.667-.539.764.764,0,0,0-.117.009.653.653,0,0,0-.108-.009h-5.016l-.043,0-.047,0a.606.606,0,0,0-.666.539v2.282h-3.722a1.115,1.115,0,0,0-1.114,1.114v5.016a1.114,1.114,0,0,0,1.045,1.11v4.011a1.061,1.061,0,0,0,1,1.113h12.248a1.061,1.061,0,0,0,1-1.113V949.4a1.114,1.114,0,0,0,1.045-1.11v-5.016A1.115,1.115,0,0,0,366.494,942.156Zm-9.831-2.243a.291.291,0,0,1,.137-.023.23.23,0,0,0,.049,0h5.032a.219.219,0,0,1,.044,0,.265.265,0,0,0,.119,0,.292.292,0,0,1,.173.017v2.741a.244.244,0,0,1-.112.024.248.248,0,0,1-.113-.024v-2.1a.277.277,0,0,0-.277-.277h-4.551a.278.278,0,0,0-.277.277v2.1a.276.276,0,0,1-.224,0Zm4.775.917v1.326h-4V940.83Zm4.57,12.576a.511.511,0,0,1-.444.558H353.315a.511.511,0,0,1-.443-.558V949.4h4.357v.506a1.114,1.114,0,0,0,1.113,1.113h1.986a1.114,1.114,0,0,0,1.114-1.113V949.4h4.566Zm-8.224-3.5v-1.568a.559.559,0,0,1,.559-.558h1.986a.559.559,0,0,1,.559.558v1.568a.56.56,0,0,1-.559.558h-1.986A.56.56,0,0,1,357.783,949.905Zm9.269-1.62a.559.559,0,0,1-.558.559h-5.052v-.506a1.115,1.115,0,0,0-1.114-1.113h-1.986a1.115,1.115,0,0,0-1.113,1.113v.506h-4.843a.559.559,0,0,1-.559-.559v-5.016a.559.559,0,0,1,.559-.559h3.724a.684.684,0,0,0,1.33,0h4a.684.684,0,0,0,1.33,0h3.724a.559.559,0,0,1,.558.559Z" transform="translate(-351.272 -939.334)" fill="red"/>
    <path id="Path_1370" data-name="Path 1370" d="M368.916,962.006a.975.975,0,1,0-.975-.974A.975.975,0,0,0,368.916,962.006Zm0-1.672a.7.7,0,1,1-.7.7A.7.7,0,0,1,368.916,960.334Z" transform="translate(-360.853 -951.245)" fill="red"/>
  </g>
</svg>
