<?xml version="1.0" encoding="UTF-8"?>
<svg width="30px" height="30px" viewBox="0 0 30 30" version="1.1" xmlns="http://www.w3.org/2000/svg" xmlns:xlink="http://www.w3.org/1999/xlink">
    <title>2468ED55-ACCF-4C64-9C9B-EFA24322BC46</title>
    <g id="Styleguide" stroke="none" stroke-width="1" fill="none" fill-rule="evenodd">
        <g id="6_Icons" transform="translate(-444.000000, -4516.000000)" fill="#000000" fill-rule="nonzero">
            <g id="Icons-/-My-Account" transform="translate(292.000000, 4231.000000)">
                <g id="Icons-/-Miscellaneous-/-Address-Book" transform="translate(152.000000, 285.000000)">
                    <path d="M19.8214286,2.67857143 C23.0759637,2.67857143 25.7142857,5.31689344 25.7142857,8.57142857 L25.7134286,9.10657143 L28.9285714,9.10714286 L28.9285714,27.8571429 L10.7142857,27.8571429 L10.7142857,9.10714286 L13.9284286,9.10657143 L13.9285714,8.57142857 C13.9285714,5.31689344 16.5668934,2.67857143 19.8214286,2.67857143 Z M28.0714286,9.96428571 L25.7134286,9.96357143 L25.7142857,11.7857143 L24.8571429,11.7857143 L24.8564286,9.96357143 L14.7854286,9.96357143 L14.7857143,11.7857143 L13.9285714,11.7857143 L13.9284286,9.96357143 L11.5714286,9.96428571 L11.5714286,27 L28.0714286,27 L28.0714286,9.96428571 Z M20.4235988,15.2156553 L23.6888992,18.3945619 L23.6888992,18.470449 L20.4124706,21.7361633 L19.8514141,21.2507442 L22.2649093,18.7629062 L16.0792973,18.8546492 L16.0257234,18.1153634 L22.3581146,18.0613694 L19.937185,15.7768721 L20.4235988,15.2156553 Z M9.64285714,19.2857143 L9.64285714,20.1428571 L4.28571429,20.1428571 L4.28571429,19.2857143 L9.64285714,19.2857143 Z M9.64285714,16.6071429 L9.64285714,17.4642857 L1.07142857,17.4642857 L1.07142857,16.6071429 L9.64285714,16.6071429 Z M9.64285714,13.9285714 L9.64285714,14.7857143 L4.28571429,14.7857143 L4.28571429,13.9285714 L9.64285714,13.9285714 Z M19.8214286,3.53571429 C17.1175345,3.53571429 14.9113743,5.66676633 14.7908962,8.3409222 L14.7857143,8.57142857 L14.7854286,9.10657143 L24.8564286,9.10657143 L24.8571429,8.57142857 C24.8571429,5.79028037 22.6025768,3.53571429 19.8214286,3.53571429 Z" id="Fast-Checkout"></path>
                </g>
            </g>
        </g>
    </g>
</svg>