<?xml version="1.0" encoding="UTF-8"?>
<svg width="30px" height="30px" viewBox="0 0 30 30" version="1.1" xmlns="http://www.w3.org/2000/svg" xmlns:xlink="http://www.w3.org/1999/xlink">
    <title>7E1DA5B3-1A01-4F42-B683-0CC071563E5B</title>
    <g id="Styleguide" stroke="none" stroke-width="1" fill="none" fill-rule="evenodd">
        <g id="6_Icons" transform="translate(-396.000000, -4516.000000)" fill="#000000" fill-rule="nonzero">
            <g id="Icons-/-My-Account" transform="translate(292.000000, 4231.000000)">
                <g id="Icons-/-Miscellaneous-/-SaksFirst" transform="translate(104.000000, 285.000000)">
                    <path d="M17.156682,5.35714286 C18.1451613,5.35714286 18.9539171,6.16589862 18.9539171,7.15437788 L18.9538756,8.68114286 L22.5483871,8.68202765 C23.0875576,8.68202765 23.4470046,8.68202765 23.8963134,9.04147465 L23.9861751,9.13133641 L23.9861751,9.13133641 L28.1198157,15.1520737 C28.2096774,15.2419355 28.5691244,15.8709677 28.5691244,17.0391705 L28.5691244,19.735023 C28.5691244,20.7235023 27.7603687,21.5322581 26.7718894,21.5322581 L26.3590805,21.5333083 C26.104474,22.806401 24.9697869,23.7788018 23.6267281,23.7788018 C22.2836694,23.7788018 21.1489822,22.806401 20.8943757,21.5333083 L9.37520951,21.5333083 C9.12060304,22.806401 7.9859159,23.7788018 6.64285714,23.7788018 C5.29979839,23.7788018 4.16511125,22.806401 3.91050478,21.5333083 L3.2281106,21.5322581 C2.23963134,21.5322581 1.43087558,20.7235023 1.43087558,19.735023 L1.43087558,7.15437788 C1.43087558,6.16589862 2.23963134,5.35714286 3.2281106,5.35714286 L17.156682,5.35714286 Z M6.64285714,19.016129 C5.56451613,19.016129 4.66589862,19.9147465 4.66589862,20.9930876 C4.66589862,22.0714286 5.56451613,22.9700461 6.64285714,22.9700461 C7.72119816,22.9700461 8.61981567,22.0714286 8.61981567,20.9930876 C8.61981567,19.9147465 7.72119816,19.016129 6.64285714,19.016129 Z M23.6267281,19.016129 C22.5483871,19.016129 21.6497696,19.9147465 21.6497696,20.9930876 C21.6497696,22.0714286 22.5483871,22.9700461 23.6267281,22.9700461 C24.7050691,22.9700461 25.6036866,22.0714286 25.6036866,20.9930876 C25.6036866,19.9147465 24.7050691,19.016129 23.6267281,19.016129 Z M17.2465438,6.07603687 L3.2281106,6.07603687 C2.68894009,6.07603687 2.23963134,6.52534562 2.23963134,7.06451613 L2.23963134,19.6451613 C2.23963134,20.1843318 2.68894009,20.6336406 3.2281106,20.6336406 L3.88064828,20.6332221 C4.0595305,19.2727672 5.23704447,18.2073733 6.64285714,18.2073733 C8.11017804,18.2073733 9.32878579,19.3680346 9.42274622,20.8134231 L20.846839,20.8134231 C20.9407995,19.3680346 22.1594072,18.2073733 23.6267281,18.2073733 C25.094049,18.2073733 26.3126568,19.3680346 26.4066172,20.8134231 L26.7718894,20.8133641 C27.3110599,20.8133641 27.7603687,20.3640553 27.7603687,19.8248848 L27.7603687,16.9493088 C27.7603687,16.0267281 27.4472504,15.5738249 27.4055013,15.5175381 L27.4009217,15.5115207 L23.2672811,9.58064516 C23.0875576,9.40092166 22.9976959,9.40092166 22.5483871,9.40092166 L18.9538756,9.40014286 L18.9539171,19.016129 C18.9539171,19.1958525 18.7741935,19.375576 18.59447,19.375576 C18.4147465,19.375576 18.235023,19.1958525 18.235023,19.016129 L18.235023,7.06451613 C18.235023,6.52534562 17.7857143,6.07603687 17.2465438,6.07603687 Z M24.9746544,14.4331797 C25.1543779,14.4331797 25.3341014,14.6129032 25.3341014,14.7926267 C25.3341014,14.9723502 25.1543779,15.1520737 24.9746544,15.1520737 L20.3917051,15.1520737 C20.2119816,15.1520737 20.0322581,14.9723502 20.0322581,14.7926267 C20.0322581,14.6129032 20.2119816,14.4331797 20.3917051,14.4331797 L24.9746544,14.4331797 Z" id="Orders"></path>
                </g>
            </g>
        </g>
    </g>
</svg>