<?xml version="1.0" encoding="UTF-8"?>
<svg width="28px" height="28px" viewBox="0 0 28 28" version="1.1" xmlns="http://www.w3.org/2000/svg" xmlns:xlink="http://www.w3.org/1999/xlink">
    <title>MyShopPreferences</title>
    <defs>
        <polygon id="path-1" points="0 0.0917647059 25.9495294 0.0917647059 25.9495294 24.0336134 0 24.0336134"></polygon>
    </defs>
    <g id="MyShopPreferences" stroke="none" stroke-width="1" fill="none" fill-rule="evenodd">
        <g id="MYSHOPPREFERENCES" transform="translate(1.000000, 2.000000)">
            <mask id="mask-2" fill="white">
                <use xlink:href="#path-1"></use>
            </mask>
            <g id="Clip-2"></g>
            <path d="M0.87394958,19.0376807 C0.87394958,17.9758319 1.62904202,6.99815126 1.78569748,4.732 L5.1202521,4.732 L5.1202521,6.24677311 C5.1202521,6.48820168 5.31579832,6.6837479 5.55722689,6.6837479 C5.79843697,6.6837479 5.99420168,6.48820168 5.99420168,6.24677311 L5.99420168,4.732 L11.596437,4.732 L11.596437,6.24677311 C11.596437,6.48820168 11.7922017,6.6837479 12.0334118,6.6837479 C12.2748403,6.6837479 12.4703866,6.48820168 12.4703866,6.24677311 L12.4703866,4.732 L15.8049412,4.732 C15.8628403,5.56858824 16.0020168,7.59221849 16.154958,9.86579832 C15.3871933,10.5267227 14.8993109,11.4935294 14.8993109,12.5719832 L14.8993109,13.0655462 L13.191395,13.0655462 C12.9916975,13.0655462 12.8173445,13.2010084 12.7679664,13.3943697 C12.714,13.606084 11.4454622,18.5908739 11.2621513,19.7923361 C11.2241345,20.0409748 11.2081849,20.2802185 11.2046891,20.5133445 L2.60284034,20.5133445 C1.07058824,20.5133445 0.87394958,19.724605 0.87394958,19.0376807 Z M5.99420168,3.69636975 C5.99420168,2.19077311 7.25072269,0.965714286 8.79542857,0.965714286 C10.339916,0.965714286 11.596437,2.19077311 11.596437,3.69636975 L11.596437,3.85805042 L5.99420168,3.85805042 L5.99420168,3.69636975 Z M18.5744874,9.84154622 C20.1189748,9.84154622 21.3754958,11.0663866 21.3754958,12.5719832 L21.3754958,13.0655462 L17.2434622,13.0655462 C17.1833782,12.1461513 17.1202353,11.197916 17.0588403,10.2791765 C17.4962521,10.0034454 18.0158151,9.84154622 18.5744874,9.84154622 Z M16.3673277,13.0655462 L15.773042,13.0655462 L15.773042,12.5719832 C15.773042,12.0185546 15.9441176,11.5035798 16.2357983,11.0727227 C16.2801513,11.7373613 16.3245042,12.4085546 16.3673277,13.0655462 Z M22.3643697,23.1596639 L14.7841681,23.1596639 C13.8553782,23.1596639 13.1164538,22.870605 12.6467059,22.3239496 C12.1540168,21.7499832 11.9737647,20.9201681 12.1260504,19.924084 C12.2765882,18.937395 13.2398992,15.0937647 13.5315798,13.9394958 L14.8993109,13.9394958 L14.8993109,15.122605 C14.8993109,15.3638151 15.0948571,15.5595798 15.3360672,15.5595798 C15.5774958,15.5595798 15.773042,15.3638151 15.773042,15.122605 L15.773042,13.9394958 L21.3754958,13.9394958 L21.3754958,15.122605 C21.3754958,15.3638151 21.5712605,15.5595798 21.8124706,15.5595798 C22.0538992,15.5595798 22.2494454,15.3638151 22.2494454,15.122605 L22.2494454,13.9394958 L23.6171765,13.9394958 C23.9088571,15.0937647 24.8721681,18.937395 25.0227059,19.924084 C25.1749916,20.9201681 24.994958,21.7499832 24.5020504,22.3239496 C24.0323025,22.870605 23.2931597,23.1596639 22.3643697,23.1596639 Z M25.887042,19.7923361 C25.7032941,18.5908739 24.4345378,13.606084 24.3807899,13.3943697 C24.3311933,13.2010084 24.1570588,13.0655462 23.9571429,13.0655462 L22.2494454,13.0655462 L22.2494454,12.5719832 C22.2494454,10.5846218 20.6007395,8.96759664 18.5744874,8.96759664 C18.0083866,8.96759664 17.4739664,9.09737815 16.9943866,9.32242017 C16.8165378,6.68243697 16.6640336,4.48510924 16.648521,4.26487395 C16.6325714,4.03568067 16.4422689,3.85805042 16.2126387,3.85805042 L12.4703866,3.85805042 L12.4703866,3.69636975 C12.4703866,1.70878992 10.8216807,0.0917647059 8.79542857,0.0917647059 C6.76895798,0.0917647059 5.1202521,1.70878992 5.1202521,3.69636975 L5.1202521,3.85805042 L1.378,3.85805042 C1.14836975,3.85805042 0.957848739,4.03568067 0.942117647,4.26487395 C0.903445378,4.81808403 0,17.8287899 0,19.0376807 C0,20.5528908 0.924420168,21.3872941 2.60284034,21.3872941 L11.2778824,21.3872941 C11.3899664,21.9643193 11.6235294,22.4740504 11.9838151,22.8931092 C12.6244202,23.6392437 13.5927563,24.0336134 14.7841681,24.0336134 L22.3643697,24.0336134 C23.556,24.0336134 24.5243361,23.6392437 25.1651597,22.8933277 C25.8291429,22.1201008 26.078437,21.0477647 25.887042,19.7923361 L25.887042,19.7923361 Z" id="Fill-1" fill="#1B1A19" mask="url(#mask-2)"></path>
        </g>
    </g>
</svg>