<svg id="Instagram" xmlns="http://www.w3.org/2000/svg" width="20.053" height="20.053" viewBox="0 0 20.053 20.053">
  <circle id="Ellipse_21" data-name="Ellipse 21" cx="10.027" cy="10.027" r="10.027" fill="#333033"/>
  <g id="Group_656" data-name="Group 656" transform="translate(4.148 4.134)">
    <g id="Group_655" data-name="Group 655">
      <path id="Path_946" data-name="Path 946" d="M784.564,164.735a.689.689,0,1,0,.689.689A.689.689,0,0,0,784.564,164.735Z" transform="translate(-775.573 -162.636)" fill="#fff"/>
      <path id="Path_947" data-name="Path 947" d="M777.472,166.294a2.9,2.9,0,1,0,2.9,2.9A2.9,2.9,0,0,0,777.472,166.294Zm0,4.75a1.854,1.854,0,1,1,1.854-1.854A1.857,1.857,0,0,1,777.472,171.044Z" transform="translate(-771.545 -163.311)" fill="#fff"/>
      <path id="Path_948" data-name="Path 948" d="M777.453,172.788H772.76a3.535,3.535,0,0,1-3.532-3.532v-4.693a3.535,3.535,0,0,1,3.532-3.532h4.693a3.535,3.535,0,0,1,3.532,3.532v4.693A3.535,3.535,0,0,1,777.453,172.788Zm-4.693-10.65a2.428,2.428,0,0,0-2.425,2.425v4.693a2.428,2.428,0,0,0,2.425,2.426h4.693a2.428,2.428,0,0,0,2.425-2.426v-4.693a2.428,2.428,0,0,0-2.425-2.425Z" transform="translate(-769.228 -161.031)" fill="#fff"/>
    </g>
  </g>
</svg>
