<svg id="Linkedin" xmlns="http://www.w3.org/2000/svg" width="20.009" height="20.009" viewBox="0 0 20.009 20.009">
  <g id="Group_345" data-name="Group 345" transform="translate(0)">
    <g id="Group_342" data-name="Group 342">
      <path id="Path_745" data-name="Path 745" d="M623.971,288.1a10,10,0,1,1,10-10A10.016,10.016,0,0,1,623.971,288.1Z" transform="translate(-613.966 -268.094)" fill="#333033"/>
    </g>
    <g id="Group_344" data-name="Group 344" transform="translate(5.24 7.704)">
      <g id="Group_343" data-name="Group 343">
        <path id="Path_746" data-name="Path 746" d="M638.658,292.137v3.735a.167.167,0,0,1-.167.167h-1.929a.167.167,0,0,1-.167-.167V292.4c0-.914-.326-1.539-1.146-1.539a1.238,1.238,0,0,0-1.16.827,1.543,1.543,0,0,0-.075.552v3.634a.167.167,0,0,1-.167.167h-1.928a.166.166,0,0,1-.167-.167c0-.925.024-5.414,0-6.469a.166.166,0,0,1,.167-.169h1.924a.167.167,0,0,1,.167.167v.8c0,.008-.011.015-.015.022h.015V290.2a2.247,2.247,0,0,1,2.039-1.124c1.489,0,2.6.973,2.6,3.063Zm-10.253,3.9h1.928a.167.167,0,0,0,.167-.167V289.4a.167.167,0,0,0-.167-.167H628.4a.167.167,0,0,0-.167.167v6.471A.167.167,0,0,0,628.4,296.039Z" transform="translate(-628.238 -289.074)" fill="#fff"/>
      </g>
    </g>
  </g>
  <g id="Group_346" data-name="Group 346" transform="translate(5.093 4.575)">
    <circle id="Ellipse_4" data-name="Ellipse 4" cx="1.211" cy="1.211" r="1.211" fill="#fff"/>
  </g>
</svg>
