<svg id="Group_1066" data-name="Group 1066" xmlns="http://www.w3.org/2000/svg" width="11.608" height="19.315" viewBox="0 0 11.608 19.315">
  <path id="Path_1059" data-name="Path 1059" d="M945.8,484.866a5.8,5.8,0,1,0-11.279,0,8.684,8.684,0,0,0,.633,2.258c.571,1.2,2.97,5.153,4.073,6.955-1.49.189-2.181.83-2.181,1.433,0,.719.975,1.492,3.115,1.492s3.115-.773,3.115-1.492c0-.6-.692-1.245-2.182-1.433,1.1-1.8,3.5-5.758,4.073-6.955A8.684,8.684,0,0,0,945.8,484.866Zm-3.422,10.647c-.06.17-.81.6-2.217.6-1.423,0-2.174-.436-2.219-.589.041-.149.652-.515,1.808-.588l.029.047a.448.448,0,0,0,.763,0l.029-.047C941.714,495,942.325,495.36,942.379,495.513Zm-6.414-8.774a7.96,7.96,0,0,1-.561-2.035c0-.011,0-.023-.007-.034a4.908,4.908,0,1,1,9.53,0c0,.011,0,.023-.007.034a7.977,7.977,0,0,1-.561,2.035c-.576,1.211-3.2,5.526-4.2,7.148C939.168,492.264,936.541,487.949,935.965,486.738Z" transform="translate(-934.358 -477.69)" fill="#272525"/>
  <path id="Path_1060" data-name="Path 1060" d="M942.364,482.277a3.115,3.115,0,1,0,3.115,3.115A3.119,3.119,0,0,0,942.364,482.277Zm-2.218,3.115a2.218,2.218,0,1,1,2.218,2.219A2.221,2.221,0,0,1,940.146,485.392Z" transform="translate(-936.56 -479.755)" fill="#272525"/>
</svg>
