<svg id="Mobile" xmlns="http://www.w3.org/2000/svg" width="13.991" height="21.914" viewBox="0 0 13.991 21.914">
  <path id="Path_1162" data-name="Path 1162" d="M804.538,939.408v17.615a2.152,2.152,0,0,0,2.15,2.149h9.692a2.152,2.152,0,0,0,2.15-2.149V939.408a2.152,2.152,0,0,0-2.15-2.149h-9.692A2.152,2.152,0,0,0,804.538,939.408Zm2.15-1.291h9.692a1.293,1.293,0,0,1,1.292,1.291v17.615a1.293,1.293,0,0,1-1.292,1.291h-9.692a1.292,1.292,0,0,1-1.291-1.291V939.408A1.292,1.292,0,0,1,806.688,938.117Z" transform="translate(-804.538 -937.259)" fill="#272525"/>
  <path id="Path_1163" data-name="Path 1163" d="M809.742,955.889h6.831a1.6,1.6,0,0,0,1.6-1.6V942.231a1.6,1.6,0,0,0-1.6-1.6h-6.831a1.6,1.6,0,0,0-1.6,1.6V954.29A1.6,1.6,0,0,0,809.742,955.889Zm-.913-13.658a.914.914,0,0,1,.913-.912h6.831a.914.914,0,0,1,.913.912V954.29a.914.914,0,0,1-.913.912h-6.831a.914.914,0,0,1-.913-.912Z" transform="translate(-806.161 -938.778)" fill="#272525"/>
  <path id="Path_1164" data-name="Path 1164" d="M816.063,969.378a1.466,1.466,0,1,0,1.466,1.467A1.468,1.468,0,0,0,816.063,969.378Zm0,2.418a.951.951,0,1,1,.951-.951A.953.953,0,0,1,816.063,971.8Z" transform="translate(-809.067 -951.72)" fill="#272525"/>
</svg>
