<svg id="Profile" xmlns="http://www.w3.org/2000/svg" width="17.253" height="18.441" viewBox="0 0 17.253 18.441">
  <path id="Profile-2" data-name="Profile" d="M179.319,681.843a6.3,6.3,0,0,0-4.652-1.148,5.019,5.019,0,1,0-5.838-.139c-1.47-.146-4.566-.037-5.505,3.224a.387.387,0,0,0-.015.106v5.7a.381.381,0,0,0,.381.381H180.18a.381.381,0,0,0,.381-.381v-5.429c0-.008,0-.015,0-.021A3.519,3.519,0,0,0,179.319,681.843Zm-11.777-5.3a4.3,4.3,0,1,1,4.323,4.3h-.041A4.306,4.306,0,0,1,167.542,676.546Zm4.227,5.831h.368l.544,1.124-.745,1.447-.555-1.092Zm-.452-.765a.257.257,0,0,1,.257-.257h.723a.257.257,0,0,1,0,.513h-.723A.257.257,0,0,1,171.316,681.613Zm1.339.671a.745.745,0,0,0,.378-.861,4.951,4.951,0,0,0,.872-.3l-.934,1.815Zm-1.394.026-.227.865-.988-1.943a5.043,5.043,0,0,0,.777.23.761.761,0,0,0,.438.848Zm8.538,6.9H164.071v-5.265c.954-3.184,4.389-2.716,5.2-2.559l2.328,4.577a.381.381,0,0,0,.339.208h0a.381.381,0,0,0,.339-.207l2.313-4.5a5.7,5.7,0,0,1,4.222.945,2.768,2.768,0,0,1,.991,1.761Z" transform="translate(-163.308 -671.527)" fill="#272525"/>
</svg>
