<svg xmlns="http://www.w3.org/2000/svg" width="20.374" height="21" viewBox="0 0 20.374 21">
  <g id="Search" transform="translate(-1586.729 -138)">
    <ellipse id="Ellipse_3" data-name="Ellipse 3" cx="7.718" cy="7.382" rx="7.718" ry="7.382" transform="translate(1586.729 138.052)" fill="#fff"/>
    <path id="Ellipse_3_-_Outline" data-name="Ellipse 3 - Outline" d="M7.563.756A6.807,6.807,0,1,0,14.37,7.563,6.815,6.815,0,0,0,7.563.756m0-.756A7.563,7.563,0,1,1,0,7.563,7.563,7.563,0,0,1,7.563,0Z" transform="translate(1586.911 138)" fill="#3e3e3e"/>
    <path id="Line_3" data-name="Line 3" d="M6.448,6.826a.377.377,0,0,1-.267-.111L-.289.246a.378.378,0,0,1,0-.535.378.378,0,0,1,.535,0l6.47,6.47a.378.378,0,0,1-.267.646Z" transform="translate(1600.276 152.174)" fill="#3e3e3e"/>
  </g>
</svg>
