<svg xmlns="http://www.w3.org/2000/svg" width="34.992" height="42.582" viewBox="0 0 34.992 42.582">
  <g id="Shop_Card" data-name="Shop Card" transform="translate(0 0)">
    <path id="Path_1781" data-name="Path 1781" d="M-243.2,574.93c-.015-.214-.055-.427-.076-.641-.4-3.958-.809-7.917-1.2-11.878-.453-4.6-.874-9.207-1.341-13.807a2.053,2.053,0,0,0-2.3-2.042c-.495-.013-.99,0-1.524,0l-1.369.013-.294,0h-6.542l.058,1.539h3.092c.418,10.345.833,20.547,1.249,30.828-2.267-.168-4.37-.316-6.472-.482-5.146-.41-10.293-.852-15.444-1.223-.959-.07-1.343-.344-1.253-1.349.253-2.786.445-5.578.65-8.368.423-5.8.824-11.594,1.262-17.39.148-1.942.185-1.938,2.056-2.042.063,0,.1-.009.223-.016l.107-1.505c-.353,0-.736,0-1.017,0-2.184-.024-2.7.44-2.86,2.639q-.451,6.118-.892,12.235c-.353,4.9-.719,9.8-1.049,14.709-.115,1.724.674,2.489,2.385,2.589,2.184.129,4.364.318,6.546.495,4.9.4,9.791.852,14.692,1.193a14.57,14.57,0,0,0,4.026-.255,46.863,46.863,0,0,0,4.793-1.53C-243.212,577.823-243.016,577.531-243.2,574.93Zm-1.72,2.372a20.13,20.13,0,0,1-7.35,1.737c0-2.149-1.354-30.974-1.354-30.974l1.41-.12,1.29-.111,3.139-.268a1.067,1.067,0,0,1,1.164.955l2.729,27.014A1.735,1.735,0,0,1-244.921,577.3Z" transform="translate(278.141 -537.885)" fill="#3e3e3e"/>
    <path id="Path_1782" data-name="Path 1782" d="M-231.87,546.52l.074,1.552-10.267-.055.113-1.5,5.609-.012,1.306-.013Z" transform="translate(249.927 -537.837)" fill="#3e3e3e"/>
    <path id="Path_1783" data-name="Path 1783" d="M-147.935,589.93c-.719-.248-1.454-.459-2.153-.755a1.59,1.59,0,0,0-1.858.26c-.745.635-1.593,1.15-2.4,1.717l-.176-.2c.779-.8,1.585-1.579,2.321-2.418a1.709,1.709,0,0,0,.454-1.1c-.443-5.718-.943-11.431-1.4-17.147a38.9,38.9,0,0,1-.089-5.69c.3,2.617.619,5.233.9,7.853.471,4.453,1.005,8.9,1.326,13.366.126,1.745.712,2.87,2.354,3.446a4.2,4.2,0,0,1,.794.494Z" transform="translate(181.465 -551.991)" fill="#3e3e3e"/>
    <path id="Path_1784" data-name="Path 1784" d="M-237.43,517.16c0-5.023-2.495-9.093-5.571-9.093s-5.571,4.07-5.571,9.093h-1.293c0-5.824,3.014-10.386,6.863-10.386s6.863,4.563,6.863,10.386" transform="translate(256.028 -506.774)" fill="#3e3e3e"/>
    <path id="Path_1785" data-name="Path 1785" d="M-202.573,515.465c-.521-4.99-3.311-8.689-6.775-8.689s-6.249,3.69-6.775,8.671c-.052.491-.083.994-.087,1.508h1.293a13.808,13.808,0,0,1,.1-1.521c.493-4.2,2.753-7.365,5.469-7.365s4.985,3.185,5.471,7.4c.052.445.085.9.094,1.369l1.29-.111Q-202.509,516.084-202.573,515.465Z" transform="translate(229.709 -506.776)" fill="#3e3e3e"/>
    <circle id="Ellipse_1" data-name="Ellipse 1" cx="1.545" cy="1.545" r="1.545" transform="translate(17.719 10.175)" fill="#3e3e3e"/>
    <circle id="Ellipse_2" data-name="Ellipse 2" cx="1.545" cy="1.545" r="1.545" transform="translate(5.258 10.175)" fill="#3e3e3e"/>
  </g>
</svg>
