<svg id="Twitter" xmlns="http://www.w3.org/2000/svg" width="20.001" height="20.001" viewBox="0 0 20.001 20.001">
  <circle id="Ellipse_20" data-name="Ellipse 20" cx="10.001" cy="10.001" r="10.001" transform="translate(0 0)" fill="#333033"/>
  <path id="Path_945" data-name="Path 945" d="M781.021,219.12a4.5,4.5,0,0,1-1.1.314c.177-.03.438-.351.542-.481a2.019,2.019,0,0,0,.366-.668c.01-.019.016-.043,0-.057a.063.063,0,0,0-.059.005,5.641,5.641,0,0,1-1.307.5.088.088,0,0,1-.091-.024,1.018,1.018,0,0,0-.114-.117,2.308,2.308,0,0,0-.634-.388,2.2,2.2,0,0,0-.972-.157,2.318,2.318,0,0,0-.922.261,2.372,2.372,0,0,0-.744.607,2.287,2.287,0,0,0-.444.89,2.4,2.4,0,0,0-.024.939c.007.053,0,.06-.045.053a6.986,6.986,0,0,1-4.494-2.287c-.053-.06-.081-.06-.124,0a2.279,2.279,0,0,0,.389,2.693c.088.083.179.167.276.243a2.3,2.3,0,0,1-.867-.243c-.053-.033-.079-.014-.083.045a1.335,1.335,0,0,0,.014.257,2.3,2.3,0,0,0,1.42,1.837,1.376,1.376,0,0,0,.288.088,2.578,2.578,0,0,1-.851.026c-.062-.012-.085.019-.062.079a2.392,2.392,0,0,0,1.787,1.5c.081.014.162.014.243.033-.005.007-.01.007-.014.014a2.832,2.832,0,0,1-1.221.647,4.369,4.369,0,0,1-1.854.237c-.1-.015-.12-.014-.148,0s0,.041.028.067c.127.084.256.157.386.229a6.125,6.125,0,0,0,1.239.5,6.6,6.6,0,0,0,6.407-1.5,6.724,6.724,0,0,0,1.773-4.9c0-.071.083-.11.133-.146a4.347,4.347,0,0,0,.872-.907.277.277,0,0,0,.058-.174v-.009C781.066,219.091,781.066,219.1,781.021,219.12Z" transform="translate(-765.495 -212.546)" fill="#fff"/>
</svg>
