<svg xmlns="http://www.w3.org/2000/svg" xmlns:xlink="http://www.w3.org/1999/xlink" width="28" height="18.5" viewBox="0 0 28 18.5">
  <defs>
    <clipPath id="clip-path">
      <rect id="Rectangle_33" data-name="Rectangle 33" width="28" height="18.5" transform="translate(1299 855.611)" fill="#41479b"/>
    </clipPath>
  </defs>
  <g id="United_Kingdom_Icon" data-name="United Kingdom Icon" transform="translate(-1299 -855.611)" clip-path="url(#clip-path)">
    <g id="Group_2" data-name="Group 2" transform="translate(1297.494 854.111)">
      <rect id="Rectangle_24" data-name="Rectangle 24" width="28.178" height="18.464" transform="translate(1.558 1.454)" fill="#41479b"/>
      <rect id="Rectangle_25" data-name="Rectangle 25" width="28.178" height="5.042" transform="translate(1.558 7.831)" fill="#fff"/>
      <rect id="Rectangle_26" data-name="Rectangle 26" width="28.178" height="2.966" transform="translate(1.558 8.943)" fill="#ff4b55"/>
      <rect id="Rectangle_27" data-name="Rectangle 27" width="18.464" height="5.042" transform="translate(18.168 1.454) rotate(90)" fill="#fff"/>
      <rect id="Rectangle_28" data-name="Rectangle 28" width="18.464" height="2.966" transform="translate(17.056 1.454) rotate(90)" fill="#ff4b55"/>
      <rect id="Rectangle_29" data-name="Rectangle 29" width="2.966" height="34.747" transform="matrix(0.545, 0.839, -0.839, 0.545, 29.142, 0.239)" fill="#fff"/>
      <rect id="Rectangle_30" data-name="Rectangle 30" width="0.964" height="34.411" transform="matrix(0.545, 0.839, -0.839, 0.545, 29.626, 0.985)" fill="#ff4b55"/>
      <rect id="Rectangle_31" data-name="Rectangle 31" width="2.966" height="34.747" transform="matrix(-0.559, 0.829, -0.829, -0.559, 30.611, 19.43)" fill="#fff"/>
      <rect id="Rectangle_32" data-name="Rectangle 32" width="0.964" height="34.411" transform="matrix(-0.559, 0.829, -0.829, -0.559, 30.114, 20.168)" fill="#ff4b55"/>
    </g>
  </g>
</svg>
